<mxfile host="app.diagrams.net" modified="2023-06-09T12:39:12.887Z" agent="Mozilla/5.0 (Windows NT 10.0; Win64; x64) AppleWebKit/537.36 (KHTML, like Gecko) Chrome/112.0.0.0 Safari/537.36 OPR/98.0.0.0 (Edition std-1)" etag="OkAT7WvoB5LXUKC4huoJ" version="21.2.1" type="device">
  <diagram id="Aone2DToYYC46qstBsFU" name="Seite-1">
    <mxGraphModel dx="1835" dy="2154" grid="1" gridSize="10" guides="1" tooltips="1" connect="1" arrows="1" fold="1" page="1" pageScale="1" pageWidth="827" pageHeight="1169" math="0" shadow="0">
      <root>
        <mxCell id="0" />
        <mxCell id="1" parent="0" />
        <mxCell id="Cbs6OXAA2ZPn9XdeZTLc-74" value="" style="whiteSpace=wrap;html=1;aspect=fixed;fillColor=#eeeeee;strokeColor=#36393d;" vertex="1" parent="1">
          <mxGeometry x="80" y="-80" width="1100" height="1100" as="geometry" />
        </mxCell>
        <mxCell id="Cbs6OXAA2ZPn9XdeZTLc-2" value="&lt;u&gt;IATA&lt;/u&gt;" style="rounded=0;whiteSpace=wrap;html=1;" vertex="1" parent="1">
          <mxGeometry x="150" y="-10" width="60" height="20" as="geometry" />
        </mxCell>
        <mxCell id="Cbs6OXAA2ZPn9XdeZTLc-3" value="name" style="rounded=0;whiteSpace=wrap;html=1;" vertex="1" parent="1">
          <mxGeometry x="210" y="-10" width="60" height="20" as="geometry" />
        </mxCell>
        <mxCell id="Cbs6OXAA2ZPn9XdeZTLc-4" value="location" style="rounded=0;whiteSpace=wrap;html=1;" vertex="1" parent="1">
          <mxGeometry x="270" y="-10" width="60" height="20" as="geometry" />
        </mxCell>
        <mxCell id="Cbs6OXAA2ZPn9XdeZTLc-5" value="timezone" style="rounded=0;whiteSpace=wrap;html=1;" vertex="1" parent="1">
          <mxGeometry x="330" y="-10" width="60" height="20" as="geometry" />
        </mxCell>
        <mxCell id="Cbs6OXAA2ZPn9XdeZTLc-7" value="AIRPORT" style="text;html=1;strokeColor=none;fillColor=none;align=center;verticalAlign=middle;whiteSpace=wrap;rounded=0;" vertex="1" parent="1">
          <mxGeometry x="150" y="-40" width="60" height="30" as="geometry" />
        </mxCell>
        <mxCell id="Cbs6OXAA2ZPn9XdeZTLc-9" value="&lt;u&gt;id&lt;/u&gt;" style="rounded=0;whiteSpace=wrap;html=1;" vertex="1" parent="1">
          <mxGeometry x="150" y="100" width="60" height="20" as="geometry" />
        </mxCell>
        <mxCell id="Cbs6OXAA2ZPn9XdeZTLc-82" style="edgeStyle=orthogonalEdgeStyle;rounded=0;orthogonalLoop=1;jettySize=auto;html=1;entryX=0.5;entryY=1;entryDx=0;entryDy=0;" edge="1" parent="1" source="Cbs6OXAA2ZPn9XdeZTLc-10" target="Cbs6OXAA2ZPn9XdeZTLc-19">
          <mxGeometry relative="1" as="geometry">
            <Array as="points">
              <mxPoint x="395" y="140" />
              <mxPoint x="790" y="140" />
              <mxPoint x="790" y="250" />
              <mxPoint x="180" y="250" />
            </Array>
          </mxGeometry>
        </mxCell>
        <mxCell id="Cbs6OXAA2ZPn9XdeZTLc-10" value="&lt;u&gt;customerid&lt;/u&gt;" style="rounded=0;whiteSpace=wrap;html=1;" vertex="1" parent="1">
          <mxGeometry x="360" y="100" width="70" height="20" as="geometry" />
        </mxCell>
        <mxCell id="Cbs6OXAA2ZPn9XdeZTLc-11" value="price" style="rounded=0;whiteSpace=wrap;html=1;" vertex="1" parent="1">
          <mxGeometry x="490" y="100" width="60" height="20" as="geometry" />
        </mxCell>
        <mxCell id="Cbs6OXAA2ZPn9XdeZTLc-83" style="edgeStyle=orthogonalEdgeStyle;rounded=0;orthogonalLoop=1;jettySize=auto;html=1;entryX=0.5;entryY=1;entryDx=0;entryDy=0;" edge="1" parent="1" source="Cbs6OXAA2ZPn9XdeZTLc-12" target="Cbs6OXAA2ZPn9XdeZTLc-29">
          <mxGeometry relative="1" as="geometry">
            <Array as="points">
              <mxPoint x="460" y="130" />
              <mxPoint x="830" y="130" />
              <mxPoint x="830" y="370" />
              <mxPoint x="185" y="370" />
            </Array>
          </mxGeometry>
        </mxCell>
        <mxCell id="Cbs6OXAA2ZPn9XdeZTLc-12" value="&lt;u&gt;flightid&lt;/u&gt;" style="rounded=0;whiteSpace=wrap;html=1;" vertex="1" parent="1">
          <mxGeometry x="430" y="100" width="60" height="20" as="geometry" />
        </mxCell>
        <mxCell id="Cbs6OXAA2ZPn9XdeZTLc-13" value="discount" style="rounded=0;whiteSpace=wrap;html=1;" vertex="1" parent="1">
          <mxGeometry x="300" y="100" width="60" height="20" as="geometry" />
        </mxCell>
        <mxCell id="Cbs6OXAA2ZPn9XdeZTLc-14" value="countofsteats" style="rounded=0;whiteSpace=wrap;html=1;" vertex="1" parent="1">
          <mxGeometry x="210" y="100" width="90" height="20" as="geometry" />
        </mxCell>
        <mxCell id="Cbs6OXAA2ZPn9XdeZTLc-18" value="BOOKING" style="text;html=1;strokeColor=none;fillColor=none;align=center;verticalAlign=middle;whiteSpace=wrap;rounded=0;" vertex="1" parent="1">
          <mxGeometry x="150" y="70" width="60" height="30" as="geometry" />
        </mxCell>
        <mxCell id="Cbs6OXAA2ZPn9XdeZTLc-19" value="&lt;u&gt;id&lt;/u&gt;" style="rounded=0;whiteSpace=wrap;html=1;" vertex="1" parent="1">
          <mxGeometry x="150" y="210" width="60" height="20" as="geometry" />
        </mxCell>
        <mxCell id="Cbs6OXAA2ZPn9XdeZTLc-20" value="firstname" style="rounded=0;whiteSpace=wrap;html=1;" vertex="1" parent="1">
          <mxGeometry x="210" y="210" width="70" height="20" as="geometry" />
        </mxCell>
        <mxCell id="Cbs6OXAA2ZPn9XdeZTLc-21" value="lastname" style="rounded=0;whiteSpace=wrap;html=1;" vertex="1" parent="1">
          <mxGeometry x="280" y="210" width="70" height="20" as="geometry" />
        </mxCell>
        <mxCell id="Cbs6OXAA2ZPn9XdeZTLc-22" value="dateofbirth" style="rounded=0;whiteSpace=wrap;html=1;" vertex="1" parent="1">
          <mxGeometry x="350" y="210" width="70" height="20" as="geometry" />
        </mxCell>
        <mxCell id="Cbs6OXAA2ZPn9XdeZTLc-23" value="mobile" style="rounded=0;whiteSpace=wrap;html=1;" vertex="1" parent="1">
          <mxGeometry x="420" y="210" width="70" height="20" as="geometry" />
        </mxCell>
        <mxCell id="Cbs6OXAA2ZPn9XdeZTLc-24" value="address" style="rounded=0;whiteSpace=wrap;html=1;" vertex="1" parent="1">
          <mxGeometry x="490" y="210" width="70" height="20" as="geometry" />
        </mxCell>
        <mxCell id="Cbs6OXAA2ZPn9XdeZTLc-25" value="email" style="rounded=0;whiteSpace=wrap;html=1;" vertex="1" parent="1">
          <mxGeometry x="560" y="210" width="70" height="20" as="geometry" />
        </mxCell>
        <mxCell id="Cbs6OXAA2ZPn9XdeZTLc-26" value="iban" style="rounded=0;whiteSpace=wrap;html=1;" vertex="1" parent="1">
          <mxGeometry x="630" y="210" width="70" height="20" as="geometry" />
        </mxCell>
        <mxCell id="Cbs6OXAA2ZPn9XdeZTLc-27" value="CUSTOMER" style="text;html=1;strokeColor=none;fillColor=none;align=center;verticalAlign=middle;whiteSpace=wrap;rounded=0;" vertex="1" parent="1">
          <mxGeometry x="150" y="180" width="60" height="30" as="geometry" />
        </mxCell>
        <mxCell id="Cbs6OXAA2ZPn9XdeZTLc-29" value="&lt;u&gt;id&lt;/u&gt;" style="rounded=0;whiteSpace=wrap;html=1;" vertex="1" parent="1">
          <mxGeometry x="150" y="330" width="70" height="20" as="geometry" />
        </mxCell>
        <mxCell id="Cbs6OXAA2ZPn9XdeZTLc-30" value="creationdate" style="rounded=0;whiteSpace=wrap;html=1;" vertex="1" parent="1">
          <mxGeometry x="220" y="330" width="90" height="20" as="geometry" />
        </mxCell>
        <mxCell id="Cbs6OXAA2ZPn9XdeZTLc-31" value="baseprice" style="rounded=0;whiteSpace=wrap;html=1;" vertex="1" parent="1">
          <mxGeometry x="310" y="330" width="90" height="20" as="geometry" />
        </mxCell>
        <mxCell id="Cbs6OXAA2ZPn9XdeZTLc-87" style="edgeStyle=orthogonalEdgeStyle;rounded=0;orthogonalLoop=1;jettySize=auto;html=1;entryX=0.25;entryY=1;entryDx=0;entryDy=0;" edge="1" parent="1" source="Cbs6OXAA2ZPn9XdeZTLc-32" target="Cbs6OXAA2ZPn9XdeZTLc-29">
          <mxGeometry relative="1" as="geometry">
            <Array as="points">
              <mxPoint x="185" y="480" />
              <mxPoint x="780" y="480" />
              <mxPoint x="780" y="385" />
              <mxPoint x="167" y="385" />
            </Array>
          </mxGeometry>
        </mxCell>
        <mxCell id="Cbs6OXAA2ZPn9XdeZTLc-32" value="&lt;u&gt;flightid&lt;/u&gt;" style="rounded=0;whiteSpace=wrap;html=1;" vertex="1" parent="1">
          <mxGeometry x="150" y="420" width="70" height="20" as="geometry" />
        </mxCell>
        <mxCell id="Cbs6OXAA2ZPn9XdeZTLc-88" style="edgeStyle=orthogonalEdgeStyle;rounded=0;orthogonalLoop=1;jettySize=auto;html=1;entryX=0.5;entryY=1;entryDx=0;entryDy=0;" edge="1" parent="1" source="Cbs6OXAA2ZPn9XdeZTLc-33" target="Cbs6OXAA2ZPn9XdeZTLc-61">
          <mxGeometry relative="1" as="geometry">
            <Array as="points">
              <mxPoint x="255" y="460" />
              <mxPoint x="950" y="460" />
              <mxPoint x="950" y="870" />
              <mxPoint x="185" y="870" />
            </Array>
          </mxGeometry>
        </mxCell>
        <mxCell id="Cbs6OXAA2ZPn9XdeZTLc-33" value="&lt;u&gt;routeid&lt;/u&gt;" style="rounded=0;whiteSpace=wrap;html=1;" vertex="1" parent="1">
          <mxGeometry x="220" y="420" width="70" height="20" as="geometry" />
        </mxCell>
        <mxCell id="Cbs6OXAA2ZPn9XdeZTLc-89" style="edgeStyle=orthogonalEdgeStyle;rounded=0;orthogonalLoop=1;jettySize=auto;html=1;entryX=0.5;entryY=1;entryDx=0;entryDy=0;" edge="1" parent="1" source="Cbs6OXAA2ZPn9XdeZTLc-34" target="Cbs6OXAA2ZPn9XdeZTLc-53">
          <mxGeometry relative="1" as="geometry">
            <Array as="points">
              <mxPoint x="325" y="450" />
              <mxPoint x="990" y="450" />
              <mxPoint x="990" y="730" />
              <mxPoint x="185" y="730" />
            </Array>
          </mxGeometry>
        </mxCell>
        <mxCell id="Cbs6OXAA2ZPn9XdeZTLc-34" value="&lt;u&gt;planeid&lt;/u&gt;" style="rounded=0;whiteSpace=wrap;html=1;" vertex="1" parent="1">
          <mxGeometry x="290" y="420" width="70" height="20" as="geometry" />
        </mxCell>
        <mxCell id="Cbs6OXAA2ZPn9XdeZTLc-35" value="departuredate" style="rounded=0;whiteSpace=wrap;html=1;" vertex="1" parent="1">
          <mxGeometry x="360" y="420" width="90" height="20" as="geometry" />
        </mxCell>
        <mxCell id="Cbs6OXAA2ZPn9XdeZTLc-36" value="departuretime" style="rounded=0;whiteSpace=wrap;html=1;" vertex="1" parent="1">
          <mxGeometry x="450" y="420" width="90" height="20" as="geometry" />
        </mxCell>
        <mxCell id="Cbs6OXAA2ZPn9XdeZTLc-37" value="arrivaldate" style="rounded=0;whiteSpace=wrap;html=1;" vertex="1" parent="1">
          <mxGeometry x="540" y="420" width="90" height="20" as="geometry" />
        </mxCell>
        <mxCell id="Cbs6OXAA2ZPn9XdeZTLc-38" value="arrivaltime" style="rounded=0;whiteSpace=wrap;html=1;" vertex="1" parent="1">
          <mxGeometry x="630" y="420" width="90" height="20" as="geometry" />
        </mxCell>
        <mxCell id="Cbs6OXAA2ZPn9XdeZTLc-39" value="&lt;u&gt;id&lt;/u&gt;" style="rounded=0;whiteSpace=wrap;html=1;" vertex="1" parent="1">
          <mxGeometry x="150" y="500" width="70" height="20" as="geometry" />
        </mxCell>
        <mxCell id="Cbs6OXAA2ZPn9XdeZTLc-40" value="name" style="rounded=0;whiteSpace=wrap;html=1;" vertex="1" parent="1">
          <mxGeometry x="220" y="500" width="70" height="20" as="geometry" />
        </mxCell>
        <mxCell id="Cbs6OXAA2ZPn9XdeZTLc-41" value="price" style="rounded=0;whiteSpace=wrap;html=1;" vertex="1" parent="1">
          <mxGeometry x="290" y="500" width="70" height="20" as="geometry" />
        </mxCell>
        <mxCell id="Cbs6OXAA2ZPn9XdeZTLc-42" value="amount" style="rounded=0;whiteSpace=wrap;html=1;" vertex="1" parent="1">
          <mxGeometry x="360" y="500" width="70" height="20" as="geometry" />
        </mxCell>
        <mxCell id="Cbs6OXAA2ZPn9XdeZTLc-43" value="&lt;u&gt;id&lt;/u&gt;" style="rounded=0;whiteSpace=wrap;html=1;" vertex="1" parent="1">
          <mxGeometry x="150" y="585" width="70" height="20" as="geometry" />
        </mxCell>
        <mxCell id="Cbs6OXAA2ZPn9XdeZTLc-44" value="firstname" style="rounded=0;whiteSpace=wrap;html=1;" vertex="1" parent="1">
          <mxGeometry x="220" y="585" width="70" height="20" as="geometry" />
        </mxCell>
        <mxCell id="Cbs6OXAA2ZPn9XdeZTLc-45" value="lastname" style="rounded=0;whiteSpace=wrap;html=1;" vertex="1" parent="1">
          <mxGeometry x="290" y="585" width="70" height="20" as="geometry" />
        </mxCell>
        <mxCell id="Cbs6OXAA2ZPn9XdeZTLc-46" value="dateofbirth" style="rounded=0;whiteSpace=wrap;html=1;" vertex="1" parent="1">
          <mxGeometry x="360" y="585" width="70" height="20" as="geometry" />
        </mxCell>
        <mxCell id="Cbs6OXAA2ZPn9XdeZTLc-47" value="email" style="rounded=0;whiteSpace=wrap;html=1;" vertex="1" parent="1">
          <mxGeometry x="430" y="585" width="70" height="20" as="geometry" />
        </mxCell>
        <mxCell id="Cbs6OXAA2ZPn9XdeZTLc-80" style="edgeStyle=orthogonalEdgeStyle;rounded=0;orthogonalLoop=1;jettySize=auto;html=1;entryX=0.5;entryY=1;entryDx=0;entryDy=0;" edge="1" parent="1" source="Cbs6OXAA2ZPn9XdeZTLc-48" target="Cbs6OXAA2ZPn9XdeZTLc-68">
          <mxGeometry relative="1" as="geometry">
            <Array as="points">
              <mxPoint x="535" y="640" />
              <mxPoint x="690" y="640" />
              <mxPoint x="690" y="940" />
              <mxPoint x="185" y="940" />
            </Array>
          </mxGeometry>
        </mxCell>
        <mxCell id="Cbs6OXAA2ZPn9XdeZTLc-48" value="&lt;u&gt;seat&lt;/u&gt;" style="rounded=0;whiteSpace=wrap;html=1;" vertex="1" parent="1">
          <mxGeometry x="500" y="585" width="70" height="20" as="geometry" />
        </mxCell>
        <mxCell id="Cbs6OXAA2ZPn9XdeZTLc-49" value="numberofmenus" style="rounded=0;whiteSpace=wrap;html=1;" vertex="1" parent="1">
          <mxGeometry x="570" y="585" width="120" height="20" as="geometry" />
        </mxCell>
        <mxCell id="Cbs6OXAA2ZPn9XdeZTLc-50" value="luggage" style="rounded=0;whiteSpace=wrap;html=1;" vertex="1" parent="1">
          <mxGeometry x="690" y="585" width="70" height="20" as="geometry" />
        </mxCell>
        <mxCell id="Cbs6OXAA2ZPn9XdeZTLc-79" style="edgeStyle=orthogonalEdgeStyle;rounded=0;orthogonalLoop=1;jettySize=auto;html=1;entryX=0.5;entryY=1;entryDx=0;entryDy=0;" edge="1" parent="1" source="Cbs6OXAA2ZPn9XdeZTLc-51" target="Cbs6OXAA2ZPn9XdeZTLc-39">
          <mxGeometry relative="1" as="geometry">
            <Array as="points">
              <mxPoint x="865" y="620" />
              <mxPoint x="920" y="620" />
              <mxPoint x="920" y="550" />
              <mxPoint x="185" y="550" />
            </Array>
          </mxGeometry>
        </mxCell>
        <mxCell id="Cbs6OXAA2ZPn9XdeZTLc-51" value="menuid" style="rounded=0;whiteSpace=wrap;html=1;" vertex="1" parent="1">
          <mxGeometry x="830" y="585" width="70" height="20" as="geometry" />
        </mxCell>
        <mxCell id="Cbs6OXAA2ZPn9XdeZTLc-77" style="edgeStyle=orthogonalEdgeStyle;rounded=0;orthogonalLoop=1;jettySize=auto;html=1;entryX=0.5;entryY=1;entryDx=0;entryDy=0;" edge="1" parent="1" source="Cbs6OXAA2ZPn9XdeZTLc-52" target="Cbs6OXAA2ZPn9XdeZTLc-9">
          <mxGeometry relative="1" as="geometry">
            <Array as="points">
              <mxPoint x="795" y="650" />
              <mxPoint x="1040" y="650" />
              <mxPoint x="1040" y="160" />
              <mxPoint x="180" y="160" />
            </Array>
          </mxGeometry>
        </mxCell>
        <mxCell id="Cbs6OXAA2ZPn9XdeZTLc-52" value="bookingid" style="rounded=0;whiteSpace=wrap;html=1;" vertex="1" parent="1">
          <mxGeometry x="760" y="585" width="70" height="20" as="geometry" />
        </mxCell>
        <mxCell id="Cbs6OXAA2ZPn9XdeZTLc-53" value="&lt;u&gt;id&lt;/u&gt;" style="rounded=0;whiteSpace=wrap;html=1;" vertex="1" parent="1">
          <mxGeometry x="150" y="690" width="70" height="20" as="geometry" />
        </mxCell>
        <mxCell id="Cbs6OXAA2ZPn9XdeZTLc-54" value="nrofseats" style="rounded=0;whiteSpace=wrap;html=1;" vertex="1" parent="1">
          <mxGeometry x="220" y="690" width="70" height="20" as="geometry" />
        </mxCell>
        <mxCell id="Cbs6OXAA2ZPn9XdeZTLc-55" value="totalcapacity" style="rounded=0;whiteSpace=wrap;html=1;" vertex="1" parent="1">
          <mxGeometry x="290" y="690" width="90" height="20" as="geometry" />
        </mxCell>
        <mxCell id="Cbs6OXAA2ZPn9XdeZTLc-56" value="FLIGHT" style="text;html=1;strokeColor=none;fillColor=none;align=center;verticalAlign=middle;whiteSpace=wrap;rounded=0;" vertex="1" parent="1">
          <mxGeometry x="150" y="300" width="60" height="30" as="geometry" />
        </mxCell>
        <mxCell id="Cbs6OXAA2ZPn9XdeZTLc-57" value="FLIGHTS_ROUTES" style="text;html=1;strokeColor=none;fillColor=none;align=center;verticalAlign=middle;whiteSpace=wrap;rounded=0;" vertex="1" parent="1">
          <mxGeometry x="150" y="390" width="60" height="30" as="geometry" />
        </mxCell>
        <mxCell id="Cbs6OXAA2ZPn9XdeZTLc-58" value="MENU" style="text;html=1;strokeColor=none;fillColor=none;align=center;verticalAlign=middle;whiteSpace=wrap;rounded=0;" vertex="1" parent="1">
          <mxGeometry x="150" y="470" width="60" height="30" as="geometry" />
        </mxCell>
        <mxCell id="Cbs6OXAA2ZPn9XdeZTLc-59" value="PASSENGER" style="text;html=1;strokeColor=none;fillColor=none;align=center;verticalAlign=middle;whiteSpace=wrap;rounded=0;" vertex="1" parent="1">
          <mxGeometry x="150" y="555" width="60" height="30" as="geometry" />
        </mxCell>
        <mxCell id="Cbs6OXAA2ZPn9XdeZTLc-60" value="PLANE" style="text;html=1;strokeColor=none;fillColor=none;align=center;verticalAlign=middle;whiteSpace=wrap;rounded=0;" vertex="1" parent="1">
          <mxGeometry x="150" y="660" width="60" height="30" as="geometry" />
        </mxCell>
        <mxCell id="Cbs6OXAA2ZPn9XdeZTLc-61" value="&lt;u&gt;id&lt;/u&gt;" style="rounded=0;whiteSpace=wrap;html=1;" vertex="1" parent="1">
          <mxGeometry x="150" y="800" width="70" height="20" as="geometry" />
        </mxCell>
        <mxCell id="Cbs6OXAA2ZPn9XdeZTLc-62" value="estduration" style="rounded=0;whiteSpace=wrap;html=1;" vertex="1" parent="1">
          <mxGeometry x="220" y="800" width="80" height="20" as="geometry" />
        </mxCell>
        <mxCell id="Cbs6OXAA2ZPn9XdeZTLc-84" style="edgeStyle=orthogonalEdgeStyle;rounded=0;orthogonalLoop=1;jettySize=auto;html=1;entryX=0.5;entryY=1;entryDx=0;entryDy=0;" edge="1" parent="1" source="Cbs6OXAA2ZPn9XdeZTLc-63" target="Cbs6OXAA2ZPn9XdeZTLc-2">
          <mxGeometry relative="1" as="geometry">
            <Array as="points">
              <mxPoint x="340" y="850" />
              <mxPoint x="1080" y="850" />
              <mxPoint x="1080" y="30" />
              <mxPoint x="180" y="30" />
            </Array>
          </mxGeometry>
        </mxCell>
        <mxCell id="Cbs6OXAA2ZPn9XdeZTLc-63" value="&lt;u&gt;startairport&lt;/u&gt;" style="rounded=0;whiteSpace=wrap;html=1;" vertex="1" parent="1">
          <mxGeometry x="300" y="800" width="80" height="20" as="geometry" />
        </mxCell>
        <mxCell id="Cbs6OXAA2ZPn9XdeZTLc-85" style="edgeStyle=orthogonalEdgeStyle;rounded=0;orthogonalLoop=1;jettySize=auto;html=1;" edge="1" parent="1" source="Cbs6OXAA2ZPn9XdeZTLc-64">
          <mxGeometry relative="1" as="geometry">
            <mxPoint x="180.00000000000023" y="10" as="targetPoint" />
            <Array as="points">
              <mxPoint x="420" y="830" />
              <mxPoint x="1110" y="830" />
              <mxPoint x="1110" y="20" />
              <mxPoint x="180" y="20" />
            </Array>
          </mxGeometry>
        </mxCell>
        <mxCell id="Cbs6OXAA2ZPn9XdeZTLc-64" value="&lt;u&gt;endairport&lt;/u&gt;" style="rounded=0;whiteSpace=wrap;html=1;" vertex="1" parent="1">
          <mxGeometry x="380" y="800" width="80" height="20" as="geometry" />
        </mxCell>
        <mxCell id="Cbs6OXAA2ZPn9XdeZTLc-65" value="revenue" style="rounded=0;whiteSpace=wrap;html=1;" vertex="1" parent="1">
          <mxGeometry x="460" y="800" width="80" height="20" as="geometry" />
        </mxCell>
        <mxCell id="Cbs6OXAA2ZPn9XdeZTLc-66" value="cost" style="rounded=0;whiteSpace=wrap;html=1;" vertex="1" parent="1">
          <mxGeometry x="540" y="800" width="80" height="20" as="geometry" />
        </mxCell>
        <mxCell id="Cbs6OXAA2ZPn9XdeZTLc-67" value="ROUTE" style="text;html=1;strokeColor=none;fillColor=none;align=center;verticalAlign=middle;whiteSpace=wrap;rounded=0;" vertex="1" parent="1">
          <mxGeometry x="150" y="770" width="60" height="30" as="geometry" />
        </mxCell>
        <mxCell id="Cbs6OXAA2ZPn9XdeZTLc-68" value="&lt;u&gt;seatname&lt;/u&gt;" style="rounded=0;whiteSpace=wrap;html=1;" vertex="1" parent="1">
          <mxGeometry x="150" y="900" width="70" height="20" as="geometry" />
        </mxCell>
        <mxCell id="Cbs6OXAA2ZPn9XdeZTLc-69" value="price" style="rounded=0;whiteSpace=wrap;html=1;" vertex="1" parent="1">
          <mxGeometry x="220" y="900" width="70" height="20" as="geometry" />
        </mxCell>
        <mxCell id="Cbs6OXAA2ZPn9XdeZTLc-70" value="legroom" style="rounded=0;whiteSpace=wrap;html=1;" vertex="1" parent="1">
          <mxGeometry x="290" y="900" width="70" height="20" as="geometry" />
        </mxCell>
        <mxCell id="Cbs6OXAA2ZPn9XdeZTLc-71" value="SEAT" style="text;html=1;strokeColor=none;fillColor=none;align=center;verticalAlign=middle;whiteSpace=wrap;rounded=0;" vertex="1" parent="1">
          <mxGeometry x="150" y="870" width="60" height="30" as="geometry" />
        </mxCell>
      </root>
    </mxGraphModel>
  </diagram>
</mxfile>
